<svg width="30" height="30" viewBox="0 0 30 30" fill="none" xmlns="http://www.w3.org/2000/svg">
<path d="M3.63651 5.21678C7.22094 1.17964 11.7328 -0.515998 17.0818 0.135724C19.9667 0.487452 22.5207 1.67875 24.7254 3.57811C27.4388 5.91482 29.1306 8.84864 29.7644 12.3818H29.7635C29.8562 12.8979 29.9173 13.4208 29.993 13.9404V16.0498C29.929 16.5213 29.8792 16.9963 29.7976 17.4648C29.2131 20.8119 27.6921 23.661 25.2088 25.9795C23.0609 27.9846 20.5326 29.2521 17.6365 29.7676C17.112 29.8609 16.5816 29.9231 16.0535 30H13.9451C13.8607 29.9806 13.7772 29.9551 13.6922 29.9433C13.191 29.8746 12.6826 29.8369 12.1873 29.7383C8.51259 29.0073 5.49061 27.1803 3.18729 24.2265C0.587619 20.8922 -0.403733 17.0889 0.147252 12.9062C0.529873 10.0017 1.68995 7.40916 3.63651 5.21678ZM17.7791 6.41502C15.4478 6.42793 13.1141 6.40271 10.7869 6.51365C9.19949 6.5894 7.92702 7.36681 7.11307 8.78123C6.67593 9.54094 6.48774 10.3825 6.4578 11.2461C6.36625 13.8911 6.31141 16.5383 6.50272 19.1816C6.67419 21.5517 8.44616 23.3363 10.8162 23.4931C12.1976 23.5842 13.5844 23.6012 14.9822 23.6523C16.3845 23.6013 17.8027 23.607 19.2098 23.4844C20.9509 23.3329 22.2855 22.4885 23.0525 20.8662C23.3952 20.1405 23.5347 19.3607 23.5476 18.5664C23.5787 16.6624 23.6031 14.7575 23.5926 12.8535C23.5879 12.0263 23.5594 11.1881 23.4226 10.375C23.1157 8.55019 22.0839 7.29943 20.2947 6.71873C19.4755 6.45334 18.6265 6.41032 17.7791 6.41502ZM17.5008 7.95408C18.1885 7.95408 18.8933 7.98718 19.5623 8.13279V8.13377C21.0052 8.4473 21.9039 9.48486 21.9568 10.959C22.0337 13.1137 22.0365 15.2722 22.0418 17.4287C22.0435 18.1086 22.0125 18.8008 21.8904 19.4678C21.6245 20.9179 20.5325 21.8991 19.0408 21.9531C16.8678 22.0312 14.6921 22.0355 12.5174 22.0361C11.8197 22.0361 11.1064 21.9983 10.4275 21.8515C9.00354 21.5432 8.13136 20.501 8.04276 19.0439C7.9612 17.7001 7.94361 16.3526 7.89725 15.0146C7.94244 13.6683 7.95748 12.33 8.04081 10.9961C8.14828 9.28526 9.29937 8.10148 11.0076 8.03514C13.1698 7.9512 15.3362 7.95467 17.5008 7.95408ZM15.0125 10.5849C12.5609 10.5799 10.6027 12.5266 10.5945 14.9765C10.5863 17.4402 12.546 19.406 15.0066 19.4043V19.4053C17.4555 19.4034 19.4082 17.4487 19.4099 14.998C19.4116 12.5451 17.4625 10.5896 15.0125 10.5849ZM15.0203 12.124C16.6136 12.1282 17.8773 13.4157 17.8699 15.0283C17.8623 16.6064 16.5763 17.8701 14.9812 17.8662C13.389 17.8621 12.1238 16.5725 12.1306 14.9609C12.1377 13.3845 13.4256 12.1199 15.0203 12.124ZM19.5965 9.36619C19.036 9.36737 18.5744 9.82832 18.5721 10.3896C18.57 10.9531 19.0249 11.416 19.5857 11.4219V11.4209C20.1473 11.4267 20.6162 10.9736 20.6267 10.414C20.6371 9.84419 20.1666 9.36517 19.5965 9.36619Z" fill="#A7A6A6"/>
</svg>
