<svg width="74" height="15" viewBox="0 0 74 15" fill="none" xmlns="http://www.w3.org/2000/svg">
<path d="M70.4473 0.415039C70.6206 0.415052 70.7993 0.431374 70.9727 0.462891C71.1566 0.494421 71.3354 0.546925 71.5088 0.615234C71.6927 0.688798 71.8713 0.778333 72.0342 0.888672C72.1971 0.999 72.3493 1.12513 72.4912 1.26172C72.6279 1.39835 72.7549 1.55585 72.8652 1.71875C72.923 1.80273 72.9703 1.88733 73.0176 1.97656C73.0595 2.06048 73.101 2.15502 73.1377 2.24414C73.1692 2.32822 73.2013 2.41262 73.2275 2.50195C73.2432 2.54388 73.2542 2.5909 73.2646 2.63281C73.2804 2.67485 73.2906 2.71735 73.2959 2.76465C73.3012 2.81183 73.3112 2.85416 73.3164 2.90137C73.3217 2.94854 73.332 2.99089 73.332 3.03809C73.3372 3.05906 73.3379 3.08553 73.3379 3.10645V11.4141C73.3326 11.4351 73.332 11.4614 73.332 11.4824C73.3268 11.5297 73.3217 11.5719 73.3164 11.6191C73.3112 11.6664 73.3064 11.7139 73.2959 11.7559C73.2854 11.7977 73.2751 11.8448 73.2646 11.8867C73.2541 11.9288 73.2381 11.9765 73.2275 12.0186C73.2013 12.1025 73.1692 12.1914 73.1377 12.2754C73.1062 12.3647 73.0649 12.4546 73.0176 12.5439C72.9703 12.6333 72.9178 12.7177 72.8652 12.8018C72.7549 12.9646 72.6331 13.1169 72.4912 13.2588C72.3546 13.4005 72.197 13.5216 72.0342 13.6318C71.8661 13.7421 71.6927 13.8317 71.5088 13.9053C71.3354 13.9736 71.1566 14.0261 70.9727 14.0576C70.7993 14.0891 70.6259 14.1045 70.4473 14.1045H3.7666C3.59316 14.1045 3.41368 14.0891 3.24023 14.0576C3.05637 14.0261 2.87746 13.9736 2.7041 13.9053C2.52021 13.8317 2.34159 13.7422 2.17871 13.6318C2.01585 13.5215 1.86354 13.3954 1.72168 13.2588C1.58514 13.1223 1.45894 12.9645 1.34863 12.8018C1.29086 12.7177 1.23832 12.628 1.19629 12.5439C1.15424 12.4599 1.11199 12.3647 1.0752 12.2754C1.04372 12.1915 1.01159 12.1077 0.985352 12.0186C0.969584 11.9765 0.95973 11.9288 0.949219 11.8867C0.933532 11.8448 0.928414 11.803 0.917969 11.7559C0.91272 11.7086 0.901747 11.6664 0.896484 11.6191C0.891232 11.5719 0.880874 11.5297 0.880859 11.4824C0.875608 11.4614 0.875 11.4351 0.875 11.4141V3.10645C0.88022 3.08557 0.880859 3.05903 0.880859 3.03809C0.886103 2.9909 0.891241 2.94852 0.896484 2.90137C0.901735 2.85412 0.907478 2.81189 0.917969 2.76465C0.92848 2.72261 0.938707 2.67485 0.949219 2.63281C0.959697 2.59097 0.97486 2.54381 0.985352 2.50195C1.01163 2.41787 1.04366 2.32822 1.0752 2.24414C1.1067 2.15489 1.14904 2.06582 1.19629 1.97656C1.24359 1.88723 1.29607 1.80283 1.34863 1.71875C1.45898 1.55589 1.57982 1.40357 1.72168 1.26172C1.85826 1.11991 2.01587 0.998979 2.17871 0.888672C2.34679 0.778389 2.52028 0.688776 2.7041 0.615234C2.87743 0.546964 3.0564 0.494427 3.24023 0.462891C3.41368 0.431361 3.5879 0.415039 3.7666 0.415039H70.4473ZM11.1016 3.3584C10.986 3.3584 10.8756 3.37989 10.7705 3.42188C10.6656 3.46382 10.5709 3.52656 10.4922 3.61035C10.324 3.77846 10.2393 3.98432 10.2393 4.2207V8.78125C10.2393 9.10699 10.3022 9.41769 10.4336 9.71191C10.565 9.99558 10.7393 10.2475 10.96 10.4629C11.1859 10.6835 11.4483 10.8518 11.7373 10.9727C11.8897 11.0357 12.0425 11.0827 12.2002 11.1143C12.3578 11.1458 12.5207 11.1621 12.6836 11.1621H24.6826C24.7982 11.1621 24.9086 11.1406 25.0137 11.0986C25.1187 11.0566 25.2142 10.9942 25.293 10.9102C25.4611 10.742 25.5449 10.5362 25.5449 10.2998C25.5448 10.0636 25.4609 9.85843 25.293 9.69043C25.2141 9.61164 25.1188 9.54825 25.0137 9.50098C24.9087 9.45905 24.7981 9.43848 24.6826 9.43848L24.6934 9.44336H13.9707C13.8815 9.44331 13.7978 9.42733 13.7139 9.39062C13.6298 9.35386 13.5611 9.30715 13.498 9.24414C13.3667 9.11807 13.293 8.96544 13.293 8.77637V4.21484C13.2929 3.97331 13.2033 3.77353 13.0352 3.60547C12.9565 3.52691 12.8623 3.46386 12.7627 3.42188C12.6576 3.37986 12.5521 3.35842 12.4365 3.3584H11.1016ZM32.1455 3.36914C32.03 3.36915 31.9195 3.38965 31.8145 3.43164C31.7094 3.47365 31.6202 3.53709 31.5361 3.62109C31.368 3.7892 31.2833 3.98921 31.2832 4.22559C31.2833 4.46182 31.3681 4.66631 31.5361 4.8291C31.615 4.9079 31.7094 4.97127 31.8145 5.01855C31.9195 5.06058 32.0299 5.08202 32.1455 5.08203H36.7236C36.8129 5.08204 36.8974 5.09227 36.9814 5.11328C37.0654 5.13429 37.1492 5.1663 37.2227 5.21875C37.3803 5.32381 37.4648 5.48671 37.4648 5.67578V10.2998C37.4649 10.5413 37.5537 10.7411 37.7217 10.9092C37.8004 10.9879 37.8902 11.0507 37.9951 11.0928C38.1002 11.1348 38.2057 11.1562 38.3213 11.1562H39.6514C39.7669 11.1562 39.8774 11.1348 39.9824 11.0928C40.0873 11.0508 40.182 10.9882 40.2607 10.9043C40.4288 10.7363 40.5126 10.5364 40.5127 10.2949V5.66992C40.5129 5.48099 40.5974 5.31788 40.7549 5.21289C40.8284 5.16567 40.9078 5.1294 40.9971 5.1084C41.081 5.08747 41.17 5.07619 41.2539 5.07617H45.8057C45.9212 5.07617 46.0317 5.05562 46.1367 5.01367C46.2418 4.97163 46.3372 4.90827 46.416 4.82422C46.584 4.65614 46.668 4.45601 46.668 4.21973C46.6679 3.98346 46.5841 3.77803 46.416 3.61523L46.4102 3.62109C46.3313 3.54232 46.2369 3.47367 46.1318 3.43164C46.0268 3.38964 45.9163 3.36917 45.8008 3.36914H32.1455ZM27.7559 3.36914C27.6403 3.36915 27.5299 3.38965 27.4248 3.43164C27.3198 3.47365 27.2305 3.5371 27.1465 3.62109C26.9783 3.7892 26.8936 3.98921 26.8936 4.22559V10.2891C26.8936 10.5306 26.9834 10.7303 27.1514 10.8984C27.2302 10.9773 27.3197 11.041 27.4248 11.083C27.5299 11.125 27.6354 11.1455 27.751 11.1455H29.0801C29.1955 11.1455 29.3062 11.1249 29.4111 11.083C29.5162 11.041 29.6064 10.9776 29.6904 10.8936C29.8584 10.7255 29.9375 10.5257 29.9375 10.2842V4.21973C29.9374 3.98344 29.8478 3.77804 29.6797 3.61523H29.6846C29.6058 3.53661 29.5161 3.4736 29.4111 3.43164C29.3062 3.38975 29.2013 3.36918 29.0859 3.36914H27.7559ZM50.3887 3.36328C50.0735 3.36328 49.7635 3.42617 49.4746 3.54688C49.1856 3.66771 48.9219 3.84674 48.7012 4.06738C48.2546 4.51393 48.003 5.11832 48.0029 5.75391V8.80176C48.0029 9.42171 48.2442 10.0157 48.6855 10.457C48.901 10.6724 49.1587 10.8459 49.4424 10.9668C49.7261 11.0824 50.0312 11.1455 50.3359 11.1455H63.124C63.2343 11.1455 63.3451 11.1241 63.4502 11.082C63.555 11.04 63.644 10.977 63.7227 10.8984C63.8854 10.7304 63.9697 10.5361 63.9697 10.2998C63.9697 10.0634 63.8908 9.8683 63.7227 9.7002V9.70605C63.6439 9.62735 63.5552 9.5635 63.4502 9.52148C63.3451 9.47947 63.2396 9.459 63.124 9.45898H51.7451C51.6559 9.45898 51.5664 9.4429 51.4824 9.40625C51.3983 9.36947 51.3242 9.3222 51.2559 9.25391C51.1245 9.12254 51.0566 8.94853 51.0566 8.76465V8.38184C51.0567 8.30308 51.0877 8.22377 51.1455 8.16602C51.1717 8.13984 51.2085 8.11341 51.2451 8.09766C51.2819 8.08193 51.3246 8.07715 51.3613 8.07715H57.2373C57.3476 8.07713 57.4584 8.05569 57.5635 8.01367C57.6682 7.9717 57.7573 7.9086 57.8359 7.83008C57.9988 7.6672 58.083 7.46688 58.083 7.23047C58.0829 6.9942 58.004 6.79989 57.8359 6.63184C57.7572 6.55316 57.6684 6.48926 57.5635 6.44727C57.4584 6.40525 57.3529 6.38478 57.2373 6.38477H51.3613C51.3193 6.38477 51.2819 6.37905 51.2451 6.36328C51.2085 6.34754 51.1769 6.32633 51.1455 6.29492C51.0879 6.23721 51.0567 6.16393 51.0566 6.08008V5.36035C51.0567 5.2816 51.0877 5.20229 51.1455 5.14453C51.1717 5.11835 51.2085 5.09192 51.2451 5.07617C51.2819 5.06045 51.3246 5.05566 51.3613 5.05566H62.0254C62.1357 5.05566 62.2465 5.03422 62.3516 4.99219C62.4565 4.95015 62.5462 4.88733 62.625 4.80859C62.7878 4.64572 62.8721 4.44012 62.8721 4.20898C62.872 3.97809 62.7876 3.77834 62.625 3.61035C62.5462 3.53158 62.4566 3.46781 62.3516 3.42578C62.2465 3.38376 62.141 3.36329 62.0254 3.36328H50.3887Z" fill="#1D1B1B"/>
</svg>
