<svg width="109" height="48" viewBox="0 0 109 48" fill="none" xmlns="http://www.w3.org/2000/svg">
<path d="M35.808 0.751953H40.5483C40.8872 0.751953 41.159 1.0338 41.159 1.38743V26.2171C41.159 26.5655 40.8872 26.8524 40.5483 26.8524H35.808C35.469 26.8524 35.1973 26.5707 35.1973 26.2171V1.38743C35.1973 1.03893 35.469 0.751953 35.808 0.751953Z" fill="white"/>
<path d="M60.0532 0.751953C62.4234 0.751953 64.3527 0.772474 66.1121 0.813471C71.6429 0.94668 75.9321 4.51356 77.0405 9.90483C77.9174 14.1584 77.4509 17.7817 75.6192 20.9794C73.7926 24.1621 70.9863 26.0376 67.2719 26.5501C66.0098 26.7246 64.6399 26.8062 62.8287 26.8267C61.0431 26.8421 61.1767 26.8421 59.3912 26.8421H57.8778L52.573 26.8524C52.2649 26.8524 52.0137 26.5912 52.0137 26.2684V1.38743C52.0137 1.03893 52.2854 0.751953 52.624 0.751953H57.8778H60.043H60.0532ZM57.8881 21.61C57.8881 21.9584 58.1599 22.2452 58.4984 22.2452H60.7508C61.9256 22.2452 63.311 22.2401 64.681 22.1888C64.6964 22.1888 64.7066 22.1888 64.722 22.1888C67.6207 21.9173 69.4983 21.2564 70.5554 18.8834C71.7404 16.2237 71.9305 13.3385 71.1456 10.0688C71.1456 10.0483 71.1353 10.0278 71.1301 10.0125C70.1295 6.75822 67.7132 5.45653 64.7015 5.21051C63.2802 5.14903 61.8794 5.1439 60.8125 5.1439H58.4933C58.1547 5.1439 57.883 5.42575 57.883 5.77938V21.6151L57.8881 21.61Z" fill="white"/>
<path d="M103.478 26.4424L101.298 21.0563C101.2 20.8208 100.98 20.6669 100.734 20.6669H89.672C89.4255 20.6669 89.2051 20.8208 89.1127 21.0512L86.9013 26.4578C86.8042 26.6938 86.5833 26.8421 86.3372 26.8421L82.0789 26.8319C81.6427 26.8319 81.35 26.3654 81.5195 25.9503L91.678 1.13632C91.7755 0.900595 91.9959 0.751953 92.2373 0.751953H98.1991C98.4451 0.751953 98.6656 0.905683 98.7631 1.14145L108.839 25.9555C109.009 26.3757 108.711 26.837 108.275 26.837H104.048C103.801 26.837 103.581 26.6784 103.483 26.4424M91.7293 16.4902H98.6758C99.0302 16.4902 99.2711 16.111 99.1325 15.7727L95.6492 7.22458C95.4797 6.80435 94.8998 6.80435 94.7307 7.22458L91.2675 15.7727C91.1289 16.111 91.3703 16.4902 91.7242 16.4902H91.7293Z" fill="white"/>
<path d="M21.5526 1.14145L14.0878 19.5652C13.9185 19.9855 13.3388 19.9855 13.1694 19.5652L5.70453 1.14145C5.60704 0.905683 5.38642 0.751953 5.1453 0.751953H0.609891C0.173824 0.751953 -0.123749 1.21318 0.0506942 1.63341L10.1116 26.4629C10.2091 26.6989 10.4297 26.8524 10.6709 26.8524H16.5915C16.838 26.8524 17.0584 26.6989 17.1508 26.4629L27.2117 1.63341C27.3812 1.21831 27.0833 0.751953 26.6472 0.751953H22.112C21.8659 0.751953 21.645 0.905683 21.5526 1.14145Z" fill="white"/>
<path d="M78.2826 41.2075H75.5204V38.8516H73.7695V45.2478H75.5204V42.6854H78.2826V45.2478H80.03V38.8516H78.2826V41.2075Z" fill="white"/>
<path d="M82.5478 41.2984C82.6946 40.4348 83.1726 39.9838 83.9473 39.9838C84.7309 39.9838 85.2633 40.5156 85.289 41.2984H82.5478ZM83.9571 38.6816C82.0303 38.6816 80.7383 40.0099 80.7383 42.0029C80.7383 44.0758 82.0154 45.3929 84.0123 45.3929C85.6078 45.3929 86.7013 44.6619 87.1117 43.2781H85.2222C85.0506 43.7834 84.6508 44.0369 84.05 44.0369C83.1469 44.0369 82.6038 43.5025 82.5585 42.5732H87.1117C87.1117 42.3487 87.125 42.2696 87.125 42.1628C87.125 40.0103 85.9018 38.6816 83.9571 38.6816Z" fill="white"/>
<path d="M90.1014 38.7959C89.4821 38.9186 87.8926 39.3961 87.8926 41.8179V45.2465H89.664V42.4147C89.664 41.366 89.8099 40.874 90.2473 40.5559C90.5152 40.3422 90.9025 40.2238 91.3523 40.2238C91.5385 40.2238 91.6185 40.2374 91.8321 40.2764V38.8246C91.8321 38.8246 91.1255 38.5959 90.1014 38.7959Z" fill="white"/>
<path d="M95.3371 44.0626C94.4041 44.0626 93.8597 43.3063 93.8597 42.0435C93.8597 40.7674 94.393 40.0231 95.3371 40.0231C96.2675 40.0231 96.8008 40.7542 96.8008 42.0302C96.8008 43.32 96.2675 44.0626 95.3371 44.0626ZM95.3371 38.6816C93.3517 38.6825 92.0742 39.9971 92.0742 42.0435C92.0742 44.0758 93.3517 45.3929 95.3371 45.3929C97.3041 45.3929 98.5833 44.0758 98.5833 42.0435C98.5833 39.9971 97.3041 38.6816 95.3371 38.6816Z" fill="white"/>
<path d="M69.0332 38.1162L66.3301 36.1211V41.8043L69.0332 39.9322V38.1162Z" fill="white"/>
<path d="M69.0332 46.2399V42.3359L66.3301 44.2776L69.0332 46.2399Z" fill="white"/>
<path d="M61.6094 46.0137L64.3133 47.9768V39.8496L61.6094 37.8545V46.0137Z" fill="white"/>
<path d="M69.0332 38.1162L66.3301 36.1211V41.8043L69.0332 39.9322V38.1162Z" fill="white"/>
<path d="M69.0332 46.2399V42.3359L66.3301 44.2776L69.0332 46.2399Z" fill="white"/>
<path d="M61.6094 46.0137L64.3133 47.9768V39.8496L61.6094 37.8545V46.0137Z" fill="white"/>
<path opacity="0.9" d="M53.4148 46.8923C53.2376 46.8923 53.0454 46.8709 52.8374 46.8282V46.0958C52.9962 46.1142 53.1246 46.1232 53.2226 46.1232C53.363 46.1232 53.4914 46.0958 53.6073 46.0411C53.7297 45.986 53.8427 45.8915 53.9463 45.7573C54.0503 45.623 54.1299 45.4396 54.1847 45.2079L52.2969 40.585H53.2774L54.643 44.155H54.6614L55.9445 40.585H56.8882L55.0372 45.3635C54.8904 45.7479 54.7376 46.0501 54.5789 46.2698C54.4261 46.4896 54.2549 46.6482 54.0657 46.7456C53.8761 46.8435 53.6591 46.8923 53.4148 46.8923Z" fill="white"/>
<path opacity="0.9" d="M50.0646 45.3832C49.7282 45.3832 49.438 45.3195 49.1936 45.1913C48.9553 45.063 48.7661 44.892 48.6257 44.6787H48.3873V41.1356H48.6257C48.7721 40.9406 48.9647 40.7786 49.2031 40.6508C49.4474 40.5161 49.7346 40.449 50.0646 40.449C50.4613 40.449 50.8191 40.5499 51.1367 40.7513C51.4542 40.9466 51.705 41.2335 51.8882 41.6118C52.0714 41.9842 52.1629 42.4207 52.1629 42.9208C52.1629 43.4214 52.0714 43.8579 51.8882 44.2298C51.705 44.6022 51.4542 44.889 51.1367 45.0904C50.8191 45.2857 50.4613 45.3832 50.0646 45.3832ZM47.709 38.71H48.6073V45.2554H47.709V38.71ZM49.9178 44.6419C50.199 44.6419 50.4369 44.5658 50.6325 44.4132C50.8341 44.2542 50.9809 44.0439 51.0725 43.7814C51.17 43.5189 51.2193 43.232 51.2193 42.9208C51.2193 42.6036 51.17 42.3138 51.0725 42.0513C50.9809 41.7888 50.8341 41.5815 50.6325 41.4289C50.4369 41.2762 50.199 41.1997 49.9178 41.1997C49.649 41.1997 49.4166 41.2703 49.221 41.4105C49.0259 41.5447 48.8761 41.7431 48.7721 42.0055C48.6681 42.2616 48.6163 42.5669 48.6163 42.9208C48.6163 43.2688 48.6681 43.574 48.7721 43.8365C48.8761 44.0926 49.0259 44.291 49.221 44.4312C49.4166 44.5718 49.649 44.6419 49.9178 44.6419Z" fill="white"/>
<path opacity="0.9" d="M42.4289 45.3832C42.0317 45.3832 41.6744 45.2857 41.3564 45.0904C41.0388 44.889 40.7884 44.6022 40.6048 44.2298C40.4217 43.8579 40.3301 43.4214 40.3301 42.9208C40.3301 42.4207 40.4217 41.9842 40.6048 41.6118C40.7884 41.2335 41.0388 40.9466 41.3564 40.7513C41.6744 40.5499 42.0317 40.449 42.4289 40.449C42.7648 40.449 43.052 40.5161 43.2904 40.6508C43.5284 40.7786 43.7209 40.9466 43.8677 41.154H44.1061V44.7061H43.8677C43.7209 44.9014 43.5254 45.063 43.281 45.1913C43.043 45.3195 42.7589 45.3832 42.4289 45.3832ZM42.5752 44.6419C42.8444 44.6419 43.0764 44.5718 43.272 44.4312C43.4676 44.291 43.6169 44.0926 43.7209 43.8365C43.8249 43.574 43.8767 43.2688 43.8767 42.9208C43.8767 42.5669 43.8249 42.2616 43.7209 42.0055C43.6169 41.7431 43.4676 41.5447 43.272 41.4105C43.0764 41.2703 42.8444 41.1997 42.5752 41.1997C42.2945 41.1997 42.0531 41.2762 41.8515 41.4289C41.656 41.5815 41.5092 41.7888 41.4116 42.0513C41.3136 42.3138 41.2648 42.6036 41.2648 42.9208C41.2648 43.232 41.3136 43.5189 41.4116 43.7814C41.5092 44.0439 41.656 44.2542 41.8515 44.4132C42.0531 44.5658 42.2945 44.6419 42.5752 44.6419ZM43.8861 38.71H44.784V45.2554H43.8861V38.71Z" fill="white"/>
<path opacity="0.9" d="M37.5789 45.3911C37.0961 45.3911 36.6806 45.2872 36.3326 45.0798C35.9843 44.8661 35.7185 44.5703 35.5353 44.1919C35.3581 43.8136 35.2695 43.3861 35.2695 42.9103C35.2695 42.4221 35.3611 41.9916 35.5443 41.6197C35.7339 41.2473 36.0027 40.9575 36.3506 40.7497C36.699 40.5424 37.1085 40.4385 37.5789 40.4385C38.0433 40.4385 38.4404 40.5364 38.7704 40.7313C39.1064 40.9267 39.3597 41.2046 39.5309 41.5645C39.7081 41.9185 39.7967 42.3366 39.7967 42.8188C39.7967 42.9894 39.7937 43.1026 39.7877 43.1574H35.7185V42.4524H38.862C38.862 42.2083 38.8068 41.9886 38.6968 41.7932C38.5932 41.5983 38.4404 41.4457 38.2388 41.3358C38.0433 41.2259 37.8143 41.1708 37.5515 41.1708C37.2947 41.1708 37.0628 41.2289 36.8548 41.3448C36.6472 41.4606 36.4854 41.6256 36.369 41.839C36.253 42.0467 36.1948 42.2878 36.1948 42.5623C36.1948 42.7453 36.1948 42.9287 36.1948 43.1116C36.1948 43.3861 36.247 43.6426 36.3506 43.8807C36.4606 44.1124 36.6198 44.3018 36.8274 44.448C37.0349 44.5886 37.2917 44.6587 37.5973 44.6587C37.8477 44.6587 38.0587 44.613 38.2294 44.5215C38.4066 44.43 38.541 44.3232 38.6326 44.2009C38.7246 44.0726 38.7888 43.9448 38.8252 43.8166H39.7419C39.6075 44.2924 39.3597 44.6741 38.9994 44.961C38.639 45.2478 38.1652 45.3911 37.5789 45.3911Z" fill="white"/>
<path opacity="0.9" d="M32.7798 41.4724H33.4397C33.5681 41.1548 33.7333 40.9107 33.9349 40.7401C34.1425 40.5631 34.3958 40.4746 34.6954 40.4746C34.8542 40.4746 34.998 40.4836 35.126 40.502V41.3625C35.016 41.3441 34.9154 41.3352 34.8238 41.3352C34.555 41.3352 34.3137 41.3989 34.0997 41.5271C33.8857 41.6554 33.7179 41.8323 33.5955 42.0581C33.4795 42.2838 33.4213 42.5433 33.4213 42.8361L32.7798 41.4724ZM32.5234 40.5845H33.4213V45.2532H32.5234V40.5845Z" fill="white"/>
<path opacity="0.9" d="M29.5359 45.3911C29.0532 45.3911 28.638 45.2872 28.2897 45.0798C27.9413 44.8661 27.6755 44.5703 27.4923 44.1919C27.3152 43.8136 27.2266 43.3861 27.2266 42.9103C27.2266 42.4221 27.3181 41.9916 27.5013 41.6197C27.6909 41.2473 27.9597 40.9575 28.3081 40.7497C28.656 40.5424 29.0656 40.4385 29.5359 40.4385C30.0003 40.4385 30.3974 40.5364 30.7274 40.7313C31.0634 40.9267 31.3172 41.2046 31.4879 41.5645C31.6651 41.9185 31.7537 42.3366 31.7537 42.8188C31.7537 42.9894 31.7507 43.1026 31.7447 43.1574H27.6755V42.4524H30.819C30.819 42.2083 30.7642 41.9886 30.6542 41.7932C30.5502 41.5983 30.3974 41.4457 30.1959 41.3358C30.0003 41.2259 29.7713 41.1708 29.5085 41.1708C29.2518 41.1708 29.0198 41.2289 28.8118 41.3448C28.6042 41.4606 28.4424 41.6256 28.326 41.839C28.2101 42.0467 28.1523 42.2878 28.1523 42.5623C28.1523 42.7453 28.1523 42.9287 28.1523 43.1116C28.1523 43.3861 28.2041 43.6426 28.3081 43.8807C28.418 44.1124 28.5768 44.3018 28.7844 44.448C28.9924 44.5886 29.2488 44.6587 29.5543 44.6587C29.8047 44.6587 30.0157 44.613 30.1869 44.5215C30.3641 44.43 30.4984 44.3232 30.59 44.2009C30.6816 44.0726 30.7458 43.9448 30.7822 43.8166H31.6989C31.5645 44.2924 31.3172 44.6741 30.9564 44.961C30.596 45.2478 30.1227 45.3911 29.5359 45.3911Z" fill="white"/>
<path opacity="0.9" d="M20.2168 40.585H21.1883L22.1782 44.2007H22.1962L23.1677 40.585H24.075L25.0465 44.2007H25.0649L26.0638 40.585H26.9985L25.5507 45.2537H24.625L23.6171 41.6558H23.5987L22.5904 45.2537H21.6646L20.2168 40.585Z" fill="white"/>
<path opacity="0.9" d="M17.6512 45.3911C17.1749 45.3911 16.7593 45.2872 16.4049 45.0798C16.0566 44.8725 15.7878 44.5822 15.5986 44.2103C15.409 43.832 15.3145 43.4015 15.3145 42.9193C15.3145 42.4375 15.409 42.007 15.5986 41.6286C15.7878 41.2503 16.0566 40.9575 16.4049 40.7497C16.7593 40.5424 17.1779 40.4385 17.6606 40.4385C18.137 40.4385 18.5495 40.5424 18.8979 40.7497C19.2459 40.9575 19.5151 41.2503 19.7042 41.6286C19.8938 42.001 19.9884 42.4281 19.9884 42.9103C19.9884 43.3985 19.8938 43.832 19.7042 44.2103C19.5151 44.5822 19.2429 44.8725 18.8885 45.0798C18.5405 45.2872 18.128 45.3911 17.6512 45.3911ZM17.6606 44.6498C17.9662 44.6498 18.2226 44.5762 18.4306 44.43C18.6441 44.2774 18.7999 44.0697 18.8979 43.8072C19.0015 43.5451 19.0537 43.2459 19.0537 42.9103C19.0537 42.4037 18.9343 41.9916 18.6963 41.6744C18.4579 41.3508 18.1126 41.1892 17.6606 41.1892C17.3491 41.1892 17.0863 41.2623 16.8723 41.4089C16.6647 41.5555 16.5089 41.7599 16.4049 42.0224C16.3009 42.2848 16.2492 42.5837 16.2492 42.9193C16.2492 43.4318 16.3681 43.8499 16.6065 44.1735C16.8449 44.4907 17.1963 44.6498 17.6606 44.6498Z" fill="white"/>
<path opacity="0.9" d="M10.2227 38.71H12.9537C13.6074 38.71 14.1268 38.8716 14.5117 39.1952C14.9027 39.5124 15.0983 40.0006 15.0983 40.6598C15.0983 41.0993 15.0066 41.4652 14.8233 41.7585C14.6461 42.0453 14.3956 42.2586 14.0718 42.3993C13.7541 42.5335 13.3814 42.6006 12.9537 42.6006H11.2308V45.2554H10.2227V38.71ZM12.9079 41.7307C13.1645 41.7307 13.3753 41.6943 13.5403 41.6208C13.7113 41.5417 13.8396 41.4224 13.9252 41.2638C14.0107 41.1052 14.0535 40.9039 14.0535 40.6598C14.0535 40.2934 13.9588 40.022 13.7694 39.845C13.58 39.668 13.2928 39.5795 12.9079 39.5795H11.2308V41.7307H12.9079Z" fill="white"/>
</svg>
