<svg width="30" height="30" viewBox="0 0 30 30" fill="none" xmlns="http://www.w3.org/2000/svg">
<path d="M15 0C23.2843 0 30 6.71573 30 15C30 23.2843 23.2843 30 15 30C6.71573 30 0 23.2843 0 15C0 6.71573 6.71573 0 15 0ZM14.5 8C14.5 8 8.55869 7.99993 7.07324 8.38672C6.66689 8.49866 6.298 8.71274 6.00391 9.00781C5.70974 9.3031 5.50005 9.66929 5.39746 10.0684C5.12565 11.5361 4.99341 13.0252 5.00098 14.5166C4.9913 16.0191 5.12355 17.5194 5.39746 18.998C5.51053 19.3846 5.72419 19.7367 6.01758 20.0195C6.31106 20.3023 6.67497 20.5072 7.07324 20.6133C8.55902 21 14.5 21 14.5 21C14.5014 21 20.4412 21 21.9268 20.6133C22.3331 20.5013 22.702 20.2863 22.9961 19.9912C23.2903 19.6959 23.5 19.3297 23.6025 18.9307C23.8722 17.4741 24.0045 15.9966 23.999 14.5166C24.0087 13.0139 23.8765 11.513 23.6025 10.0342C23.4999 9.63521 23.2902 9.26983 22.9961 8.97461C22.702 8.67942 22.3332 8.46451 21.9268 8.35254C20.4413 7.99945 14.5014 8 14.5 8Z" fill="#A7A6A6"/>
<path d="M13 17.5L18 14.5L13 11.5V17.5Z" fill="#A7A6A6"/>
</svg>
